<?xml version="1.0" encoding="UTF-8" standalone="no"?>
<svg
   xmlns:dc="http://purl.org/dc/elements/1.1/"
   xmlns:cc="http://creativecommons.org/ns#"
   xmlns:rdf="http://www.w3.org/1999/02/22-rdf-syntax-ns#"
   xmlns:svg="http://www.w3.org/2000/svg"
   xmlns="http://www.w3.org/2000/svg"
   xmlns:sodipodi="http://sodipodi.sourceforge.net/DTD/sodipodi-0.dtd"
   xmlns:inkscape="http://www.inkscape.org/namespaces/inkscape"
   sodipodi:docname="logo.svg"
   inkscape:version="1.0 (4035a4fb49, 2020-05-01)"
   id="svg8"
   version="1.1"
   viewBox="0 0 210 297"
   height="297mm"
   width="210mm">
  <defs
     id="defs2">
    <inkscape:path-effect
       lpeversion="1"
       is_visible="true"
       id="path-effect1209"
       effect="spiro" />
    <inkscape:path-effect
       lpeversion="1"
       is_visible="true"
       id="path-effect1161"
       effect="spiro" />
    <inkscape:path-effect
       lpeversion="1"
       is_visible="true"
       id="path-effect1157"
       effect="spiro" />
    <inkscape:path-effect
       lpeversion="1"
       is_visible="true"
       id="path-effect1141"
       effect="spiro" />
    <inkscape:path-effect
       lpeversion="1"
       is_visible="true"
       id="path-effect1137"
       effect="spiro" />
    <inkscape:path-effect
       lpeversion="1"
       is_visible="true"
       id="path-effect1133"
       effect="spiro" />
    <inkscape:path-effect
       lpeversion="1"
       is_visible="true"
       id="path-effect1117"
       effect="spiro" />
    <inkscape:path-effect
       lpeversion="1"
       is_visible="true"
       id="path-effect1057"
       effect="spiro" />
    <inkscape:path-effect
       lpeversion="1"
       is_visible="true"
       id="path-effect1053"
       effect="spiro" />
    <inkscape:path-effect
       lpeversion="1"
       is_visible="true"
       id="path-effect1049"
       effect="spiro" />
    <inkscape:path-effect
       lpeversion="1"
       is_visible="true"
       id="path-effect1045"
       effect="spiro" />
    <inkscape:path-effect
       lpeversion="1"
       is_visible="true"
       id="path-effect1041"
       effect="spiro" />
    <inkscape:path-effect
       lpeversion="1"
       is_visible="true"
       id="path-effect1037"
       effect="spiro" />
    <inkscape:path-effect
       lpeversion="1"
       is_visible="true"
       id="path-effect1033"
       effect="spiro" />
    <inkscape:path-effect
       lpeversion="1"
       is_visible="true"
       id="path-effect1029"
       effect="spiro" />
    <inkscape:path-effect
       lpeversion="1"
       is_visible="true"
       id="path-effect1025"
       effect="spiro" />
    <inkscape:path-effect
       lpeversion="1"
       is_visible="true"
       id="path-effect1021"
       effect="spiro" />
    <inkscape:path-effect
       lpeversion="1"
       is_visible="true"
       id="path-effect1017"
       effect="spiro" />
    <inkscape:path-effect
       lpeversion="1"
       is_visible="true"
       id="path-effect1013"
       effect="spiro" />
    <inkscape:path-effect
       lpeversion="1"
       is_visible="true"
       id="path-effect1009"
       effect="spiro" />
    <inkscape:path-effect
       lpeversion="1"
       is_visible="true"
       id="path-effect1005"
       effect="spiro" />
    <inkscape:path-effect
       lpeversion="1"
       is_visible="true"
       id="path-effect1001"
       effect="spiro" />
    <inkscape:path-effect
       lpeversion="1"
       is_visible="true"
       id="path-effect997"
       effect="spiro" />
    <inkscape:path-effect
       lpeversion="1"
       is_visible="true"
       id="path-effect993"
       effect="spiro" />
    <inkscape:path-effect
       lpeversion="1"
       is_visible="true"
       id="path-effect989"
       effect="spiro" />
    <inkscape:path-effect
       lpeversion="1"
       is_visible="true"
       id="path-effect985"
       effect="spiro" />
    <inkscape:path-effect
       lpeversion="1"
       is_visible="true"
       id="path-effect126"
       effect="spiro" />
    <inkscape:path-effect
       lpeversion="1"
       is_visible="true"
       id="path-effect122"
       effect="spiro" />
    <inkscape:path-effect
       lpeversion="1"
       is_visible="true"
       id="path-effect118"
       effect="spiro" />
  </defs>
  <sodipodi:namedview
     inkscape:window-maximized="1"
     inkscape:window-y="-11"
     inkscape:window-x="-11"
     inkscape:window-height="986"
     inkscape:window-width="1920"
     showgrid="false"
     inkscape:document-rotation="0"
     inkscape:current-layer="layer1"
     inkscape:document-units="mm"
     inkscape:cy="560"
     inkscape:cx="-116.64195"
     inkscape:zoom="0.35"
     inkscape:pageshadow="2"
     inkscape:pageopacity="0.0"
     borderopacity="1.0"
     bordercolor="#666666"
     pagecolor="#ffffff"
     id="base" />
  <metadata
     id="metadata5">
    <rdf:RDF>
      <cc:Work
         rdf:about="">
        <dc:format>image/svg+xml</dc:format>
        <dc:type
           rdf:resource="http://purl.org/dc/dcmitype/StillImage" />
        <dc:title></dc:title>
      </cc:Work>
    </rdf:RDF>
  </metadata>
  <g
     id="layer1"
     inkscape:groupmode="layer"
     inkscape:label="Layer 1">
    <path
       id="path26"
       d="m 16.30973,104.87163 c -0.856721,1.16554 -1.809342,2.25738 -2.570153,3.49663 -3.226254,5.25516 -4.6564494,11.2932 -6.3085616,17.23342 -0.5335877,1.91855 -1.2888641,3.77754 -1.6355447,5.74448 -0.6689355,3.79531 -1.0593629,7.64425 -1.4018994,11.48894 -0.1255318,1.40893 0,2.83061 0,4.24591 0,7.13265 0.5808382,17.76533 4.9066525,23.47742 3.2222382,4.25486 7.4399392,5.46602 12.3834592,4.74543 1.707184,-0.24884 3.710734,-0.57974 5.140297,-1.74832 1.926843,-1.57506 3.753832,-3.3152 5.373962,-5.24495 2.83815,-3.38056 4.078117,-7.49083 5.373952,-11.7387 0.530139,-1.73786 1.402394,-6.67602 1.635545,-8.49184 1.182031,-9.20571 1.660858,-18.11075 -0.233645,-27.2238 -1.161613,-5.58766 -3.339098,-12.08198 -7.476806,-15.98462 -4.513975,-4.25753 -6.480987,-4.25039 -11.682514,-1.74831 -0.626634,0.30142 -1.821391,0.88675 -2.33649,1.49855 -1.363001,1.61885 -1.505622,2.61381 -2.336508,4.74543"
       style="fill:none;stroke:#000000;stroke-width:0.723799;stroke-linecap:butt;stroke-linejoin:miter;stroke-miterlimit:4;stroke-dasharray:none;stroke-opacity:1" />
    <path
       id="path28"
       d="m 23.786527,144.33366 c 0.700954,1.4153 1.551473,2.75691 2.102854,4.24591 1.762293,4.75907 7.645664,31.2546 17.056466,26.22477"
       style="fill:none;stroke:#000000;stroke-width:0.723799;stroke-linecap:butt;stroke-linejoin:miter;stroke-miterlimit:4;stroke-dasharray:none;stroke-opacity:1" />
    <path
       id="path30"
       d="m 42.945847,150.57766 c 1.090366,-0.83254 2.3236,-1.48478 3.271098,-2.49761 1.115122,-1.192 1.623945,-2.89731 2.570154,-4.24591 2.587617,-3.68805 0.05425,0.21858 1.869199,-2.4976 0.326436,-0.48852 0.372973,-1.49856 0.9346,-1.49856 0.328869,0 -0.613717,5.91093 -0.700955,6.49376 -0.977559,6.53105 -2.583711,15.1398 -2.102844,21.47933 0.04199,0.55312 0.749723,6.7918 1.168245,8.49182 0.06267,0.25439 1.189908,4.35923 2.336508,3.7464 4.655287,-2.48813 6.25509,-11.75564 7.710451,-16.73389 0.823294,-2.8162 1.686199,-5.62439 2.336499,-8.49184 0.636963,-2.80862 1.121809,-5.6545 1.635554,-8.49182 0.155767,-1.0823 0.311533,-2.16458 0.4673,-3.24688 0,-0.41627 -0.0483,-0.83574 0,-1.2488 0.0483,-0.41305 0.275361,-1.54314 0,-1.24879 -1.066133,1.13963 -0.616068,2.81471 -0.4673,4.24591 0.150507,1.44797 0,3.04205 0,4.49567 0,6.32122 0.601468,12.55857 1.869199,18.73197 0.705831,3.43717 1.13179,8.29935 4.205708,10.48991"
       style="fill:none;stroke:#000000;stroke-width:0.723799;stroke-linecap:butt;stroke-linejoin:miter;stroke-miterlimit:4;stroke-dasharray:none;stroke-opacity:1" />
    <path
       id="path32"
       d="m 76.59146,143.83414 c -0.134863,7.38334 0.438291,14.76804 1.869199,21.97885 0.39986,2.01502 1.2539,8.16297 3.271108,9.24111"
       style="fill:none;stroke:#000000;stroke-width:0.723799;stroke-linecap:butt;stroke-linejoin:miter;stroke-miterlimit:4;stroke-dasharray:none;stroke-opacity:1" />
    <path
       id="path34"
       d="m 75.189561,131.59591 -0.4673,-1.99807"
       style="fill:none;stroke:#000000;stroke-width:0.723799;stroke-linecap:butt;stroke-linejoin:miter;stroke-miterlimit:4;stroke-dasharray:none;stroke-opacity:1" />
    <path
       id="path36"
       d="m 74.722261,129.59784 c -0.233655,0.74928 -0.861231,1.47683 -0.700945,2.24784 0.192634,0.92662 0.888575,1.73452 1.635545,2.24783 0.458599,0.31514 1.162198,0.28914 1.635553,0 3.79166,-2.31605 0.650447,-6.217 -1.168254,-5.24495 -2.083102,1.11336 1.77082,-0.0986 -1.401899,0.74928 z"
       style="fill:none;stroke:#000000;stroke-width:0.723799;stroke-linecap:butt;stroke-linejoin:miter;stroke-miterlimit:4;stroke-dasharray:none;stroke-opacity:1" />
    <path
       id="path38"
       d="m 94.816169,144.0839 c -1.557666,1.58181 -3.395942,2.89853 -4.672996,4.74544 -3.512996,5.08056 -5.485378,12.43622 -4.673007,18.73197 0.146307,1.13386 0.865128,4.78415 1.869199,5.74447 0.9085,0.86892 2.075711,1.49275 3.271108,1.74832 6.870561,1.46886 8.876325,-6.17583 10.981547,-11.23918"
       style="fill:none;stroke:#000000;stroke-width:0.723799;stroke-linecap:butt;stroke-linejoin:miter;stroke-miterlimit:4;stroke-dasharray:none;stroke-opacity:1" />
    <path
       id="path40"
       d="m 104.62947,127.35001 c 0.0451,12.744 0.67198,25.48126 1.16826,38.21322 0.0907,2.32731 0.7892,6.61593 0.23364,8.99135"
       style="fill:none;stroke:#000000;stroke-width:0.723799;stroke-linecap:butt;stroke-linejoin:miter;stroke-miterlimit:4;stroke-dasharray:none;stroke-opacity:1" />
    <path
       id="path42"
       d="m 104.39583,153.57476 c 0.70094,-1.4153 1.18309,-2.98183 2.10284,-4.24591 1.28482,-1.7658 2.68084,-3.53268 4.43936,-4.74543 1.66228,-1.14638 4.90046,0.0327 5.6076,1.99807 1.35662,3.77039 -3.3258,7.05176 -5.37395,9.24111 -0.66315,0.70888 -1.25498,1.49026 -1.8692,2.24784 -0.7975,0.98364 -2.28519,2.68344 -1.63555,4.24592 1.57446,3.7868 8.75535,9.00635 12.38346,9.99038 3.58722,0.97295 7.28115,1.68348 10.98156,1.74832 1.18612,0.0208 2.50877,-0.52697 3.27109,-1.49855 1.3879,-1.7689 1.8692,-4.16266 2.8038,-6.244"
       style="fill:none;stroke:#000000;stroke-width:0.723799;stroke-linecap:butt;stroke-linejoin:miter;stroke-miterlimit:4;stroke-dasharray:none;stroke-opacity:1" />
    <path
       id="path44"
       d="m 153.92965,144.33366 c -1.8692,0.74928 -3.83002,1.27666 -5.6076,2.24783 -1.75031,0.95629 -3.41028,2.13407 -4.90666,3.49664 -0.64129,0.58396 -1.00773,1.45197 -1.40189,2.24784 -3.43885,6.94346 9.53643,7.0582 10.98155,13.23726 1.271,5.43451 -7.46064,8.03539 -10.98155,7.24303 -0.43112,-0.097 -0.62307,-0.66603 -0.9346,-0.99904"
       style="fill:none;stroke:#000000;stroke-width:0.723799;stroke-linecap:butt;stroke-linejoin:miter;stroke-miterlimit:4;stroke-dasharray:none;stroke-opacity:1" />
    <path
       id="path48"
       d="m 172.38801,147.33078 c -1.55767,0.58277 -3.29985,0.76977 -4.673,1.74831 -4.77619,3.40366 -7.86373,8.62063 -8.8787,14.73583 -0.72551,4.37116 5.99701,16.78997 10.98156,15.4851 2.80815,-0.73514 5.14029,-2.83061 7.71045,-4.24592"
       style="fill:none;stroke:#000000;stroke-width:0.723799;stroke-linecap:butt;stroke-linejoin:miter;stroke-miterlimit:4;stroke-dasharray:none;stroke-opacity:1" />
    <path
       id="path50"
       d="m 188.97718,153.07525 c 0.65546,5.65867 0.70821,11.39904 1.8692,16.98366 0.36667,1.76375 0.86189,3.94434 2.33649,4.99519"
       style="fill:none;stroke:#000000;stroke-width:0.723799;stroke-linecap:butt;stroke-linejoin:miter;stroke-miterlimit:4;stroke-dasharray:none;stroke-opacity:1" />
    <path
       id="path54"
       d="m 188.97718,139.08871 c -0.31154,1.49856 -0.86629,2.96229 -0.9346,4.49567 -0.10035,2.25247 1.85049,-0.47096 1.8692,-0.49952 0.42115,-0.64314 1.19679,-4.28246 0,-4.49567 -0.34357,-0.0612 -0.62307,0.33301 -0.9346,0.49952 z"
       style="fill:none;stroke:#000000;stroke-width:0.723799;stroke-linecap:butt;stroke-linejoin:miter;stroke-miterlimit:4;stroke-dasharray:none;stroke-opacity:1" />
    <path
       inkscape:original-d="m 204.10675,169.87447 c -1.32154,0 -2.64307,0 -3.9646,0 -0.3308,1.23416 -0.77663,2.35272 -1.16607,3.53251 -0.0762,0.231 -0.15547,-0.009 -0.15547,0.2355 0.18139,0.27474 0.35243,0.56611 0.54416,0.82425 0.12478,0.168 0.33258,0.2012 0.46642,0.35325 0.21596,0.24534 0.15663,0.31689 0.31096,0.70649 0.0854,0.21551 0.2807,0.28019 0.38868,0.47101 0.0754,0.13327 0.0735,0.34688 0.15547,0.471 0.3991,0.60452 0.40998,0.16611 0.69964,0.82425 0.75146,0 1.50292,0 2.25438,0 0.18108,0 0.44882,-0.0749 0.62191,0 0.35755,0.15474 0.29288,0.2355 0.54415,0.2355 0.17036,-0.23523 1.59349,-3.41475 1.78797,-3.41475 0.0259,-0.23551 0.0951,-0.46922 0.0778,-0.7065 -0.0156,-0.21306 -0.54874,-1.41995 -0.62189,-1.53076 -0.0916,-0.13876 -0.21934,-0.21448 -0.31095,-0.35325 -0.0952,-0.1442 -0.10911,-0.34567 -0.23321,-0.471 -0.29255,-0.29542 -0.57585,-0.26172 -0.69964,-0.82425"
       inkscape:path-effect="#path-effect1209"
       id="path1207"
       d="m 204.10675,169.87447 h -3.9646 c -0.0909,1.2493 -0.4954,2.47457 -1.16607,3.53251 -0.0504,0.0795 -0.1022,0.15797 -0.15547,0.2355 0.0739,0.32832 0.27128,0.6273 0.54416,0.82425 0.15888,0.11467 0.34548,0.19909 0.46642,0.35325 0.0798,0.10166 0.12434,0.22592 0.16443,0.34876 0.0401,0.12285 0.0777,0.24836 0.14653,0.35773 0.10866,0.1727 0.28786,0.29362 0.38868,0.47101 0.0819,0.14413 0.10513,0.31305 0.15547,0.471 0.11233,0.35248 0.37009,0.65615 0.69964,0.82425 h 2.25438 c 0.20743,0 0.41583,-0.0236 0.62191,0 0.19922,0.0229 0.39113,0.1059 0.54415,0.2355 l 1.78797,-3.41475 c 0.0604,-0.22999 0.0867,-0.46889 0.0778,-0.7065 -0.021,-0.56171 -0.24471,-1.11399 -0.62189,-1.53076 -0.10538,-0.11644 -0.22277,-0.22329 -0.31095,-0.35325 -0.0985,-0.14516 -0.15657,-0.31321 -0.23321,-0.471 -0.15913,-0.32761 -0.40223,-0.61401 -0.69964,-0.82425"
       style="fill:none;stroke:#000000;stroke-width:0.468491;stroke-linecap:butt;stroke-linejoin:miter;stroke-miterlimit:4;stroke-dasharray:none;stroke-opacity:1" />
  </g>
</svg>
